# xmcd
#
# Track frame offsets:
#	150
#	20819
#	43529
#	51659
#	69029
#	85115
#	105457
#	117117
#	133124
#	151565
#	173847
#	191885
#	204924
#	230455
#	243078
#	256514
#	278299
#	296298
#	315643
#	326271
#
# Disc length: 4588 seconds
#
# Revision: 1
# Processed by: cddbd v1.5.2PL0 Copyright (c) Steve Scherf et al.
# Submitted via: audiograbber 1.83.01
#
DISCID=fc11ea14
DTITLE=Jerome Wheeler - River Cowboy
DYEAR=2004
DGENRE=
TTITLE0=River Cowboy (J. Wheeler)
TTITLE1=Homesick Rag (J. Wheeler)
TTITLE2=Sowin' On The Mountain (Trad)
TTITLE3=Glendale Train (Trad)
TTITLE4=I Still Miss Someone (J. Cash)
TTITLE5=Frankie And Johnny (Trad)
TTITLE6=I'll Fly Away (Trad)
TTITLE7=I'm In The Jailhouse Now (Trad)
TTITLE8=Wild Young Men (J. Wheeler)
TTITLE9=Stolen Away (J. Wheeler)
TTITLE10=Polly And Verlaine (J. Wheeler)
TTITLE11=Down Into The River (Dann a Moore)
TTITLE12=Hesitation Blues (Trad)
TTITLE13=Scorpio Love Song (Loee Ruth)
TTITLE14=Clock Of Life (Danna Moore)
TTITLE15=Talkin' Columbia's City Pipeline Blues (J. Wheeler)
TTITLE16=Pipeline Blues II (J. Wheeler)
TTITLE17=Sit By The River (Trad)
TTITLE18=Swimmin' In The River (J. Wheeler)
TTITLE19=Shenandoah (Trad)
EXTD=Includes songs by Jerome Wheeler, J. Cash, Danna Moore, Lee Ruth, and trad
EXTD=itionals
EXTT0=
EXTT1=
EXTT2=
EXTT3=
EXTT4=
EXTT5=
EXTT6=
EXTT7=
EXTT8=
EXTT9=
EXTT10=
EXTT11=
EXTT12=
EXTT13=
EXTT14=
EXTT15=
EXTT16=
EXTT17=
EXTT18=
EXTT19=
PLAYORDER=
